<svg width="500" height="500" viewBox="0 0 500 500" fill="none" xmlns="http://www.w3.org/2000/svg">
<rect x="0.5" y="0.5" width="99" height="99" stroke="#006CA9"/>
<rect x="400.5" y="0.5" width="99" height="99" stroke="#006CA9"/>
<rect x="300.5" y="0.5" width="99" height="99" stroke="#006CA9"/>
<rect x="200.5" y="0.5" width="99" height="99" stroke="#006CA9"/>
<rect x="100.5" y="0.5" width="99" height="99" stroke="#006CA9"/>
<rect x="0.5" y="400.5" width="99" height="99" stroke="#006CA9"/>
<rect x="400.5" y="400.5" width="99" height="99" stroke="#006CA9"/>
<rect x="300.5" y="400.5" width="99" height="99" stroke="#006CA9"/>
<rect x="200.5" y="400.5" width="99" height="99" stroke="#006CA9"/>
<rect x="100.5" y="400.5" width="99" height="99" stroke="#006CA9"/>
<rect x="0.5" y="300.5" width="99" height="99" stroke="#006CA9"/>
<rect x="400.5" y="300.5" width="99" height="99" stroke="#006CA9"/>
<rect x="300.5" y="300.5" width="99" height="99" stroke="#006CA9"/>
<rect x="200.5" y="300.5" width="99" height="99" stroke="#006CA9"/>
<rect x="100.5" y="300.5" width="99" height="99" stroke="#006CA9"/>
<rect x="0.5" y="200.5" width="99" height="99" stroke="#006CA9"/>
<rect x="400.5" y="200.5" width="99" height="99" stroke="#006CA9"/>
<rect x="300.5" y="200.5" width="99" height="99" stroke="#006CA9"/>
<rect x="200.5" y="200.5" width="99" height="99" stroke="#006CA9"/>
<rect x="100.5" y="200.5" width="99" height="99" stroke="#006CA9"/>
<rect x="0.5" y="100.5" width="99" height="99" stroke="#006CA9"/>
<rect x="400.5" y="100.5" width="99" height="99" stroke="#006CA9"/>
<rect x="300.5" y="100.5" width="99" height="99" stroke="#006CA9"/>
<rect x="200.5" y="100.5" width="99" height="99" stroke="#006CA9"/>
<rect x="100.5" y="100.5" width="99" height="99" stroke="#006CA9"/>
<g clip-path="url(#clip0_990_135)">
<path d="M18.8887 47.7812H81.1109V90.0035H18.8887V47.7812Z" fill="#CCD6DD"/>
<path d="M23.3335 38.8906H74.4446V50.0017H23.3335V38.8906Z" fill="#226699"/>
<path d="M12.2222 36.6641V85.5529C12.2222 86.7317 12.6904 87.8622 13.5239 88.6956C14.3574 89.5291 15.4879 89.9974 16.6666 89.9974H25.5555V36.6641H12.2222ZM74.4444 36.6641V89.9974H83.3333C84.512 89.9974 85.6425 89.5291 86.476 88.6956C87.3095 87.8622 87.7777 86.7317 87.7777 85.5529V36.6641H74.4444Z" fill="#AAB8C2"/>
<path d="M41.1113 58.8906H58.8891V83.3351H41.1113V58.8906Z" fill="#F2F9FF"/>
<path d="M58.8887 52.2188C58.2331 52.2188 57.6487 53.0876 57.2442 54.441H42.7553C42.3487 53.0876 41.7664 52.2188 41.1109 52.2188C39.8842 52.2188 38.8887 55.2054 38.8887 58.8854C38.8887 62.5676 39.8842 65.5521 41.1109 65.5521C42.3376 65.5521 43.3331 62.5676 43.3331 58.8854H56.6664C56.6664 62.5676 57.6598 65.5521 58.8887 65.5521C60.1176 65.5521 61.1109 62.5676 61.1109 58.8854C61.1109 55.2054 60.1176 52.2188 58.8887 52.2188Z" fill="#226699"/>
<path d="M16.6665 47.7812H21.1109V52.2257H16.6665V47.7812ZM29.9998 54.4479H34.4443V58.8924H29.9998V54.4479ZM65.5554 54.4479H69.9998V58.8924H65.5554V54.4479ZM29.9998 63.3368H34.4443V67.7813H29.9998V63.3368ZM65.5554 63.3368H69.9998V67.7813H65.5554V63.3368ZM16.6665 56.6701H21.1109V61.1146H16.6665V56.6701ZM78.8887 47.7812H83.3332V52.2257H78.8887V47.7812ZM78.8887 56.6701H83.3332V61.1146H78.8887V56.6701Z" fill="#66757F"/>
<path d="M38.8887 58.8906H61.1109V67.7795H38.8887V58.8906Z" fill="#F2F9FF"/>
<path d="M50.0001 67.7812C48.8214 67.7812 47.6909 68.2495 46.8574 69.083C46.0239 69.9165 45.5557 71.047 45.5557 72.2257V83.3368H54.4446V72.2257C54.4446 71.047 53.9763 69.9165 53.1428 69.083C52.3093 68.2495 51.1788 67.7812 50.0001 67.7812Z" fill="#66757F"/>
<path d="M36.6665 83.3359H63.3332V90.0026H36.6665V83.3359Z" fill="#8899A6"/>
<path d="M12.2222 36.6684H25.5555C25.5555 36.6684 21.1111 18.8906 18.8888 18.8906C16.6666 18.8906 12.2222 36.6684 12.2222 36.6684ZM74.4444 36.6684H87.7777C87.7777 36.6684 83.3333 18.8906 81.1111 18.8906C78.8888 18.8906 74.4444 36.6684 74.4444 36.6684Z" fill="#226699"/>
<path d="M27.7778 41.1128C27.7778 41.7022 27.5437 42.2674 27.1269 42.6842C26.7102 43.1009 26.1449 43.3351 25.5556 43.3351H12.2222C11.6329 43.3351 11.0676 43.1009 10.6509 42.6842C10.2341 42.2674 10 41.7022 10 41.1128C10 40.5235 10.2341 39.9582 10.6509 39.5415C11.0676 39.1248 11.6329 38.8906 12.2222 38.8906H25.5556C26.1449 38.8906 26.7102 39.1248 27.1269 39.5415C27.5437 39.9582 27.7778 40.5235 27.7778 41.1128ZM90 41.1128C90 41.7022 89.7659 42.2674 89.3491 42.6842C88.9324 43.1009 88.3672 43.3351 87.7778 43.3351H74.4444C73.8551 43.3351 73.2898 43.1009 72.8731 42.6842C72.4563 42.2674 72.2222 41.7022 72.2222 41.1128C72.2222 40.5235 72.4563 39.9582 72.8731 39.5415C73.2898 39.1248 73.8551 38.8906 74.4444 38.8906H87.7778C88.3672 38.8906 88.9324 39.1248 89.3491 39.5415C89.7659 39.9582 90 40.5235 90 41.1128Z" fill="#CCD6DD"/>
</g>
<rect x="196" y="1" width="7" height="98" fill="#C9EBFB"/>
<rect x="96" y="101" width="7" height="98" fill="#C9EBFB"/>
<rect x="299" y="401" width="7" height="98" fill="#C9EBFB"/>
<rect x="299" y="301" width="7" height="98" fill="#C9EBFB"/>
<rect x="96" y="401" width="7" height="98" fill="#C9EBFB"/>
<rect x="201" y="206" width="7" height="98" transform="rotate(-90 201 206)" fill="#C9EBFB"/>
<rect x="101" y="303" width="7" height="98" transform="rotate(-90 101 303)" fill="#C9EBFB"/>
<rect x="401" y="403" width="7" height="98" transform="rotate(-90 401 403)" fill="#C9EBFB"/>
<rect x="1" y="303" width="7" height="98" transform="rotate(-90 1 303)" fill="#C9EBFB"/>
<rect x="401" y="206" width="7" height="98" transform="rotate(-90 401 206)" fill="#C9EBFB"/>
<rect x="301" y="203" width="7" height="98" transform="rotate(-90 301 203)" fill="#C9EBFB"/>
<rect x="396" y="1" width="7" height="98" fill="#C9EBFB"/>
<defs>
<clipPath id="clip0_990_135">
<rect width="80" height="80" fill="white" transform="translate(10 10)"/>
</clipPath>
</defs>
</svg>
